<svg width="91" height="28" viewBox="0 0 91 28" fill="none" xmlns="http://www.w3.org/2000/svg">
<rect width="90" height="28" transform="translate(0.184082)" fill="#053EFF"/>
<path d="M21.5542 10.256H18.177V11.1862H21.5675L21.5542 10.256ZM20.8415 16.6547C20.5852 16.8228 20.2827 16.9081 19.9755 16.8988C19.7721 16.9198 19.5666 16.899 19.3718 16.8377C19.1769 16.7764 18.9969 16.6759 18.8431 16.5426C18.5586 16.2232 18.4106 15.8069 18.4301 15.3816H22.8398C22.8716 14.9386 22.8334 14.4935 22.7266 14.0623C22.6232 13.652 22.4424 13.2647 22.1937 12.9211C21.9433 12.5877 21.6199 12.3148 21.2478 12.1229C20.8338 11.9207 20.3771 11.819 19.9155 11.826C19.4814 11.8229 19.0511 11.9059 18.6499 12.0701C18.2825 12.2235 17.9497 12.4477 17.6707 12.7298C17.3925 13.0174 17.1771 13.3587 17.0379 13.7324C16.8885 14.1358 16.814 14.5627 16.8181 14.9924C16.8112 15.4281 16.8834 15.8616 17.0312 16.2721C17.1568 16.6438 17.3561 16.987 17.6174 17.2814C17.8878 17.5704 18.2201 17.7958 18.5899 17.941C19.0023 18.0966 19.441 18.1727 19.8822 18.1653C20.5013 18.1844 21.1126 18.0239 21.6408 17.7035C22.1743 17.3281 22.5584 16.7797 22.7266 16.1534H21.2544C21.1756 16.3606 21.0306 16.5366 20.8415 16.6547ZM18.5566 13.9369C18.6085 13.7725 18.6945 13.6206 18.8093 13.491C18.924 13.3615 19.0649 13.2572 19.2228 13.1849C19.4319 13.0917 19.6596 13.0466 19.8889 13.053C20.0545 13.039 20.2212 13.0606 20.3776 13.1164C20.534 13.1722 20.6763 13.2608 20.7948 13.3762C21.0212 13.6506 21.1664 13.9816 21.2145 14.3327H18.4501C18.4608 14.1987 18.4854 14.066 18.5233 13.9369H18.5566ZM15.0328 13.6203C15.3719 13.4805 15.6665 13.2526 15.8855 12.9606C16.0868 12.6506 16.1868 12.2867 16.1719 11.9184C16.185 11.5825 16.1188 11.2482 15.9787 10.9421C15.861 10.6769 15.6721 10.4487 15.4325 10.2824C15.1785 10.1096 14.89 9.99262 14.5865 9.93941C14.2274 9.86481 13.861 9.82942 13.4941 9.83387H9.51733V18.1323H13.5807C13.9515 18.1326 14.3209 18.086 14.6798 17.9938C15.02 17.9066 15.3423 17.7615 15.6324 17.565C15.9133 17.3722 16.142 17.114 16.2985 16.813C16.4716 16.4764 16.5564 16.1021 16.5449 15.7246C16.5576 15.2567 16.425 14.7963 16.1653 14.4053C15.8859 14.0121 15.4715 13.733 14.9995 13.6203H15.0328ZM11.3625 11.2521H13.0878C13.2463 11.2519 13.4045 11.2652 13.5607 11.2917C13.7046 11.3128 13.8427 11.3622 13.967 11.4368C14.0872 11.5041 14.1845 11.6051 14.2468 11.7271C14.324 11.8733 14.3607 12.0372 14.3534 12.202C14.3658 12.344 14.3439 12.4869 14.2894 12.6188C14.235 12.7507 14.1496 12.8679 14.0403 12.9606C13.8019 13.1229 13.5167 13.204 13.2276 13.1915H11.3625V11.2521ZM14.5865 16.16C14.5181 16.2944 14.4146 16.4083 14.2868 16.4898C14.1538 16.5717 14.0072 16.6298 13.8538 16.6613C13.6833 16.6991 13.5089 16.7168 13.3342 16.7141H11.3359V14.4383H13.3342C13.6772 14.4234 14.0158 14.5182 14.3001 14.7087C14.4285 14.8229 14.528 14.9653 14.5905 15.1246C14.653 15.2839 14.6768 15.4556 14.6598 15.6256C14.6778 15.807 14.6527 15.9899 14.5865 16.16V16.16Z" fill="white"/>
<path d="M35.7651 15.7734C35.7651 16.125 35.6935 16.4391 35.5503 16.7158C35.4103 16.9925 35.2166 17.222 34.9692 17.4043C34.6828 17.6191 34.367 17.7721 34.022 17.8633C33.6802 17.9544 33.2456 18 32.7183 18H29.5444V10.7295H32.3667C32.9526 10.7295 33.3807 10.749 33.6509 10.7881C33.9243 10.8271 34.1945 10.9134 34.4614 11.0469C34.7381 11.1868 34.9432 11.3757 35.0767 11.6133C35.2134 11.8477 35.2817 12.1162 35.2817 12.4189C35.2817 12.7705 35.189 13.0814 35.0034 13.3516C34.8179 13.6185 34.5558 13.8268 34.2173 13.9766V14.0156C34.6925 14.11 35.0685 14.3053 35.3452 14.6016C35.6252 14.8978 35.7651 15.2884 35.7651 15.7734ZM33.3628 12.7852C33.3628 12.6647 33.3319 12.5443 33.27 12.4238C33.2114 12.3034 33.1056 12.2139 32.9526 12.1553C32.8159 12.1032 32.645 12.0755 32.4399 12.0723C32.2381 12.0658 31.9533 12.0625 31.5854 12.0625H31.4097V13.6006H31.7026C31.9989 13.6006 32.2511 13.5957 32.4595 13.5859C32.6678 13.5762 32.8322 13.5436 32.9526 13.4883C33.1219 13.4134 33.2326 13.3174 33.2847 13.2002C33.3368 13.0798 33.3628 12.9414 33.3628 12.7852ZM33.8218 15.7441C33.8218 15.513 33.7762 15.3356 33.6851 15.2119C33.5972 15.085 33.4458 14.9906 33.231 14.9287C33.0845 14.8864 32.8826 14.8636 32.6255 14.8604C32.3683 14.8571 32.0998 14.8555 31.8198 14.8555H31.4097V16.667H31.5464C32.0737 16.667 32.4513 16.6654 32.6792 16.6621C32.9071 16.6589 33.117 16.6165 33.3091 16.5352C33.5044 16.4538 33.6379 16.3464 33.7095 16.2129C33.7843 16.0762 33.8218 15.9199 33.8218 15.7441ZM42.4204 18H37.1616V10.7295H42.4204V12.1357H39.0269V13.3906H42.1763V14.7969H39.0269V16.5938H42.4204V18ZM50.5161 18H48.6411V14.7969H45.8726V18H43.9976V10.7295H45.8726V13.3906H48.6411V10.7295H50.5161V18ZM59.0952 18H57.1567L56.6538 16.5303H53.9585L53.4556 18H51.5659L54.2515 10.7295H56.4097L59.0952 18ZM56.1997 15.1973L55.3062 12.5898L54.4126 15.1973H56.1997ZM66.7515 18H64.9448L61.8589 13.0098V18H60.1401V10.7295H62.3813L65.0327 14.8945V10.7295H66.7515V18ZM71.8931 18.1416C71.3527 18.1416 70.853 18.0618 70.394 17.9023C69.9383 17.7428 69.5461 17.5052 69.2173 17.1895C68.8885 16.8737 68.633 16.4798 68.4507 16.0078C68.2716 15.5358 68.1821 14.9906 68.1821 14.3721C68.1821 13.7959 68.2684 13.2734 68.4409 12.8047C68.6134 12.3359 68.8641 11.9339 69.1929 11.5986C69.5086 11.2764 69.8993 11.0273 70.3647 10.8516C70.8335 10.6758 71.3446 10.5879 71.8979 10.5879C72.2039 10.5879 72.479 10.6058 72.7231 10.6416C72.9705 10.6742 73.1984 10.7181 73.4067 10.7734C73.6248 10.8353 73.8218 10.9053 73.9976 10.9834C74.1766 11.0583 74.3328 11.1283 74.4663 11.1934V12.9561H74.2515C74.1603 12.8779 74.0448 12.7852 73.9048 12.6777C73.7681 12.5703 73.6118 12.4645 73.436 12.3604C73.257 12.2562 73.0633 12.1683 72.855 12.0967C72.6466 12.0251 72.4237 11.9893 72.186 11.9893C71.9224 11.9893 71.6717 12.0316 71.4341 12.1162C71.1965 12.1976 70.9767 12.3343 70.7749 12.5264C70.5828 12.7119 70.4266 12.9577 70.3062 13.2637C70.189 13.5697 70.1304 13.9408 70.1304 14.377C70.1304 14.8327 70.1938 15.2135 70.3208 15.5195C70.451 15.8255 70.6138 16.0664 70.8091 16.2422C71.0076 16.4212 71.229 16.5498 71.4731 16.6279C71.7173 16.7028 71.9582 16.7402 72.1958 16.7402C72.4237 16.7402 72.6483 16.7061 72.8696 16.6377C73.0942 16.5693 73.3009 16.4766 73.4897 16.3594C73.6493 16.265 73.7974 16.1641 73.9341 16.0566C74.0708 15.9492 74.1831 15.8564 74.271 15.7783H74.4663V17.5166C74.284 17.598 74.1099 17.6745 73.9438 17.7461C73.7778 17.8177 73.6037 17.8796 73.4214 17.9316C73.1838 18 72.9608 18.0521 72.7524 18.0879C72.5441 18.1237 72.2576 18.1416 71.8931 18.1416ZM81.1021 18H75.8433V10.7295H81.1021V12.1357H77.7085V13.3906H80.8579V14.7969H77.7085V16.5938H81.1021V18Z" fill="white"/>
</svg>
