<svg width="95" height="28" viewBox="0 0 95 28" fill="none" xmlns="http://www.w3.org/2000/svg">
<rect width="94" height="28" transform="translate(0.184082)" fill="#EA4C89"/>
<path d="M16.184 7.3335C14.8655 7.3335 13.5765 7.72449 12.4802 8.45703C11.3839 9.18957 10.5294 10.2308 10.0248 11.4489C9.52022 12.6671 9.3882 14.0076 9.64544 15.3008C9.90267 16.594 10.5376 17.7819 11.47 18.7142C12.4023 19.6466 13.5902 20.2815 14.8834 20.5387C16.1766 20.796 17.5171 20.6639 18.7352 20.1594C19.9534 19.6548 20.9946 18.8003 21.7271 17.704C22.4597 16.6076 22.8507 15.3187 22.8507 14.0002C22.8507 13.1247 22.6782 12.2578 22.3432 11.4489C22.0082 10.6401 21.5171 9.90517 20.898 9.28612C20.279 8.66706 19.5441 8.176 18.7352 7.84097C17.9264 7.50593 17.0595 7.3335 16.184 7.3335V7.3335ZM16.184 8.66683C17.5538 8.66628 18.8705 9.19678 19.8573 10.1468C18.8387 10.7443 17.7593 11.2315 16.6373 11.6002C16.079 10.638 15.4389 9.72579 14.724 8.8735C15.1986 8.73683 15.6901 8.66726 16.184 8.66683V8.66683ZM13.444 9.4335C14.1425 10.2325 14.7693 11.0914 15.3173 12.0002C14.0087 12.3251 12.6657 12.4907 11.3173 12.4935H11.0773C11.4555 11.2133 12.3 10.1214 13.444 9.4335V9.4335ZM12.184 17.5402C11.3165 16.566 10.8414 15.3046 10.8507 14.0002C10.8507 13.9335 10.8507 13.8668 10.8507 13.8068H11.304C12.8823 13.7927 14.4516 13.5685 15.9707 13.1402C16.184 13.5468 16.384 13.9668 16.5773 14.4002C15.5383 14.7664 14.5707 15.31 13.7173 16.0068L13.5173 16.1668C13.0421 16.5937 12.5966 17.0525 12.184 17.5402V17.5402ZM16.184 19.3335C15.1214 19.3359 14.0828 19.0175 13.204 18.4202C13.5286 18.0479 13.8759 17.6961 14.244 17.3668L14.4573 17.1868C15.2461 16.5234 16.15 16.0105 17.124 15.6735C17.5249 16.7575 17.837 17.8723 18.0573 19.0068C17.4572 19.2259 16.8229 19.3366 16.184 19.3335V19.3335ZM19.2707 18.3402C19.0526 17.3312 18.7675 16.3379 18.4173 15.3668H18.644C18.6703 15.3603 18.6977 15.3603 18.724 15.3668H18.7973H18.864H19.184C19.8856 15.3688 20.5819 15.4883 21.244 15.7202C20.8802 16.7804 20.1893 17.6978 19.2707 18.3402V18.3402ZM19.184 14.0002C19.044 14.0002 18.904 14.0002 18.7707 14.0002C18.6843 13.9893 18.597 13.9893 18.5107 14.0002C18.3295 14.0113 18.1491 14.0336 17.9707 14.0668H17.904C17.7107 13.6202 17.5107 13.1868 17.2907 12.7335C18.4844 12.3235 19.6309 11.7872 20.7107 11.1335C21.2463 11.9931 21.5261 12.9874 21.5173 14.0002C21.5173 14.1135 21.5173 14.2268 21.5173 14.3402C20.7618 14.107 19.9747 13.9923 19.184 14.0002V14.0002Z" fill="white"/>
<path d="M36.1587 14.3721C36.1587 15.0492 36.0041 15.6562 35.6948 16.1934C35.3856 16.7272 34.995 17.1374 34.5229 17.4238C34.1681 17.6387 33.7791 17.7884 33.356 17.873C32.9328 17.9577 32.4315 18 31.8521 18H29.2886V10.7295H31.9253C32.5177 10.7295 33.0288 10.7799 33.4585 10.8809C33.8882 10.9785 34.2495 11.1185 34.5425 11.3008C35.0438 11.6068 35.4377 12.0202 35.7241 12.541C36.0138 13.0586 36.1587 13.6689 36.1587 14.3721ZM34.2202 14.3574C34.2202 13.8789 34.1323 13.4704 33.9565 13.1318C33.784 12.79 33.509 12.5231 33.1313 12.3311C32.9393 12.2367 32.7424 12.1732 32.5405 12.1406C32.342 12.1048 32.0409 12.0869 31.6372 12.0869H31.1636V16.6377H31.6372C32.0832 16.6377 32.4103 16.6182 32.6187 16.5791C32.827 16.5368 33.0304 16.4619 33.229 16.3545C33.5708 16.1592 33.8215 15.8988 33.981 15.5732C34.1405 15.2445 34.2202 14.8392 34.2202 14.3574ZM41.6665 12.9561C41.6665 12.7738 41.6291 12.6175 41.5542 12.4873C41.4793 12.3571 41.3507 12.2546 41.1685 12.1797C41.0415 12.1276 40.8934 12.0967 40.7241 12.0869C40.5549 12.0739 40.3579 12.0674 40.1333 12.0674H39.4546V14.0254H40.0308C40.3302 14.0254 40.5809 14.0107 40.7827 13.9814C40.9845 13.9521 41.1538 13.8854 41.2905 13.7812C41.4207 13.6803 41.5151 13.5697 41.5737 13.4492C41.6356 13.3255 41.6665 13.1611 41.6665 12.9561ZM44.5913 18H42.3013L40.3188 15.334H39.4546V18H37.5894V10.7295H40.7339C41.1636 10.7295 41.533 10.7539 41.8423 10.8027C42.1515 10.8516 42.4412 10.9574 42.7114 11.1201C42.9849 11.2829 43.2013 11.4945 43.3608 11.7549C43.5236 12.012 43.605 12.3359 43.605 12.7266C43.605 13.2637 43.4797 13.7015 43.229 14.04C42.9816 14.3786 42.6268 14.6602 42.1646 14.8848L44.5913 18ZM49.3423 18H45.0845V16.7109H46.2759V12.0186H45.0845V10.7295H49.3423V12.0186H48.1509V16.7109H49.3423V18ZM57.0913 15.7734C57.0913 16.125 57.0197 16.4391 56.8765 16.7158C56.7365 16.9925 56.5428 17.222 56.2954 17.4043C56.009 17.6191 55.6932 17.7721 55.3481 17.8633C55.0063 17.9544 54.5718 18 54.0444 18H50.8706V10.7295H53.6929C54.2788 10.7295 54.7069 10.749 54.9771 10.7881C55.2505 10.8271 55.5207 10.9134 55.7876 11.0469C56.0643 11.1868 56.2694 11.3757 56.4028 11.6133C56.5396 11.8477 56.6079 12.1162 56.6079 12.4189C56.6079 12.7705 56.5151 13.0814 56.3296 13.3516C56.144 13.6185 55.882 13.8268 55.5435 13.9766V14.0156C56.0187 14.11 56.3947 14.3053 56.6714 14.6016C56.9513 14.8978 57.0913 15.2884 57.0913 15.7734ZM54.689 12.7852C54.689 12.6647 54.658 12.5443 54.5962 12.4238C54.5376 12.3034 54.4318 12.2139 54.2788 12.1553C54.1421 12.1032 53.9712 12.0755 53.7661 12.0723C53.5643 12.0658 53.2795 12.0625 52.9116 12.0625H52.7358V13.6006H53.0288C53.325 13.6006 53.5773 13.5957 53.7856 13.5859C53.994 13.5762 54.1584 13.5436 54.2788 13.4883C54.4481 13.4134 54.5588 13.3174 54.6108 13.2002C54.6629 13.0798 54.689 12.9414 54.689 12.7852ZM55.1479 15.7441C55.1479 15.513 55.1024 15.3356 55.0112 15.2119C54.9233 15.085 54.772 14.9906 54.5571 14.9287C54.4106 14.8864 54.2088 14.8636 53.9517 14.8604C53.6945 14.8571 53.4259 14.8555 53.146 14.8555H52.7358V16.667H52.8726C53.3999 16.667 53.7775 16.6654 54.0054 16.6621C54.2332 16.6589 54.4432 16.6165 54.6353 16.5352C54.8306 16.4538 54.964 16.3464 55.0356 16.2129C55.1105 16.0762 55.1479 15.9199 55.1479 15.7441ZM64.7085 15.7734C64.7085 16.125 64.6369 16.4391 64.4937 16.7158C64.3537 16.9925 64.16 17.222 63.9126 17.4043C63.6261 17.6191 63.3104 17.7721 62.9653 17.8633C62.6235 17.9544 62.189 18 61.6616 18H58.4878V10.7295H61.3101C61.896 10.7295 62.3241 10.749 62.5942 10.7881C62.8677 10.8271 63.1379 10.9134 63.4048 11.0469C63.6815 11.1868 63.8866 11.3757 64.02 11.6133C64.1567 11.8477 64.2251 12.1162 64.2251 12.4189C64.2251 12.7705 64.1323 13.0814 63.9468 13.3516C63.7612 13.6185 63.4992 13.8268 63.1606 13.9766V14.0156C63.6359 14.11 64.0119 14.3053 64.2886 14.6016C64.5685 14.8978 64.7085 15.2884 64.7085 15.7734ZM62.3062 12.7852C62.3062 12.6647 62.2752 12.5443 62.2134 12.4238C62.1548 12.3034 62.049 12.2139 61.896 12.1553C61.7593 12.1032 61.5884 12.0755 61.3833 12.0723C61.1815 12.0658 60.8966 12.0625 60.5288 12.0625H60.353V13.6006H60.646C60.9422 13.6006 61.1945 13.5957 61.4028 13.5859C61.6112 13.5762 61.7756 13.5436 61.896 13.4883C62.0653 13.4134 62.1759 13.3174 62.228 13.2002C62.2801 13.0798 62.3062 12.9414 62.3062 12.7852ZM62.7651 15.7441C62.7651 15.513 62.7196 15.3356 62.6284 15.2119C62.5405 15.085 62.3892 14.9906 62.1743 14.9287C62.0278 14.8864 61.826 14.8636 61.5688 14.8604C61.3117 14.8571 61.0431 14.8555 60.7632 14.8555H60.353V16.667H60.4897C61.0171 16.667 61.3947 16.6654 61.6226 16.6621C61.8504 16.6589 62.0604 16.6165 62.2524 16.5352C62.4478 16.4538 62.5812 16.3464 62.6528 16.2129C62.7277 16.0762 62.7651 15.9199 62.7651 15.7441ZM72.3257 15.7734C72.3257 16.125 72.2541 16.4391 72.1108 16.7158C71.9709 16.9925 71.7772 17.222 71.5298 17.4043C71.2433 17.6191 70.9276 17.7721 70.5825 17.8633C70.2407 17.9544 69.8062 18 69.2788 18H66.105V10.7295H68.9272C69.5132 10.7295 69.9412 10.749 70.2114 10.7881C70.4849 10.8271 70.755 10.9134 71.022 11.0469C71.2987 11.1868 71.5037 11.3757 71.6372 11.6133C71.7739 11.8477 71.8423 12.1162 71.8423 12.4189C71.8423 12.7705 71.7495 13.0814 71.564 13.3516C71.3784 13.6185 71.1164 13.8268 70.7778 13.9766V14.0156C71.2531 14.11 71.6291 14.3053 71.9058 14.6016C72.1857 14.8978 72.3257 15.2884 72.3257 15.7734ZM69.9233 12.7852C69.9233 12.6647 69.8924 12.5443 69.8306 12.4238C69.772 12.3034 69.6662 12.2139 69.5132 12.1553C69.3765 12.1032 69.2056 12.0755 69.0005 12.0723C68.7987 12.0658 68.5138 12.0625 68.146 12.0625H67.9702V13.6006H68.2632C68.5594 13.6006 68.8117 13.5957 69.02 13.5859C69.2284 13.5762 69.3927 13.5436 69.5132 13.4883C69.6825 13.4134 69.7931 13.3174 69.8452 13.2002C69.8973 13.0798 69.9233 12.9414 69.9233 12.7852ZM70.3823 15.7441C70.3823 15.513 70.3368 15.3356 70.2456 15.2119C70.1577 15.085 70.0063 14.9906 69.7915 14.9287C69.645 14.8864 69.4432 14.8636 69.186 14.8604C68.9289 14.8571 68.6603 14.8555 68.3804 14.8555H67.9702V16.667H68.1069C68.6343 16.667 69.0119 16.6654 69.2397 16.6621C69.4676 16.6589 69.6776 16.6165 69.8696 16.5352C70.0649 16.4538 70.1984 16.3464 70.27 16.2129C70.3449 16.0762 70.3823 15.9199 70.3823 15.7441ZM78.9663 18H73.7222V10.7295H75.5972V16.5938H78.9663V18ZM85.3579 18H80.0991V10.7295H85.3579V12.1357H81.9644V13.3906H85.1138V14.7969H81.9644V16.5938H85.3579V18Z" fill="white"/>
</svg>
