<svg width="98" height="28" viewBox="0 0 98 28" fill="none" xmlns="http://www.w3.org/2000/svg">
<rect width="97" height="28" transform="translate(0.184326)" fill="#4267B2"/>
<path fill-rule="evenodd" clip-rule="evenodd" d="M10.9552 7H21.5802C22.0497 7.00044 22.4998 7.18715 22.8318 7.51915C23.1638 7.85115 23.3506 8.30131 23.351 8.77083V19.3958C23.3506 19.8654 23.1638 20.3155 22.8318 20.6475C22.4998 20.9795 22.0497 21.1662 21.5802 21.1667H18.9238V16.297H20.252L21.1374 14.0835H18.9238V12.3127C18.9238 11.8634 19.2592 11.866 19.6929 11.8694C19.731 11.8697 19.7698 11.87 19.8092 11.87H20.6947V9.65641H18.9238C18.2193 9.65641 17.5437 9.93627 17.0456 10.4344C16.5474 10.9326 16.2676 11.6082 16.2676 12.3127V14.0835H14.4967V16.297H16.2676V21.1667H10.9552C10.4856 21.1662 10.0355 20.9795 9.70348 20.6475C9.37148 20.3155 9.18477 19.8654 9.18433 19.3958V8.77083C9.18477 8.30131 9.37148 7.85115 9.70348 7.51915C10.0355 7.18715 10.4856 7.00044 10.9552 7Z" fill="white"/>
<path d="M34.4802 12.1357H31.1355V13.4883H34.2361V14.8945H31.1355V18H29.2703V10.7295H34.4802V12.1357ZM42.4929 18H40.5544L40.0515 16.5303H37.3562L36.8533 18H34.9636L37.6492 10.7295H39.8074L42.4929 18ZM39.5974 15.1973L38.7039 12.5898L37.8103 15.1973H39.5974ZM46.824 18.1416C46.2836 18.1416 45.7839 18.0618 45.325 17.9023C44.8692 17.7428 44.477 17.5052 44.1482 17.1895C43.8194 16.8737 43.5639 16.4798 43.3816 16.0078C43.2026 15.5358 43.113 14.9906 43.113 14.3721C43.113 13.7959 43.1993 13.2734 43.3718 12.8047C43.5444 12.3359 43.795 11.9339 44.1238 11.5986C44.4395 11.2764 44.8302 11.0273 45.2957 10.8516C45.7644 10.6758 46.2755 10.5879 46.8289 10.5879C47.1348 10.5879 47.4099 10.6058 47.6541 10.6416C47.9014 10.6742 48.1293 10.7181 48.3376 10.7734C48.5557 10.8353 48.7527 10.9053 48.9285 10.9834C49.1075 11.0583 49.2638 11.1283 49.3972 11.1934V12.9561H49.1824C49.0912 12.8779 48.9757 12.7852 48.8357 12.6777C48.699 12.5703 48.5427 12.4645 48.3669 12.3604C48.1879 12.2562 47.9942 12.1683 47.7859 12.0967C47.5776 12.0251 47.3546 11.9893 47.1169 11.9893C46.8533 11.9893 46.6026 12.0316 46.365 12.1162C46.1274 12.1976 45.9076 12.3343 45.7058 12.5264C45.5138 12.7119 45.3575 12.9577 45.2371 13.2637C45.1199 13.5697 45.0613 13.9408 45.0613 14.377C45.0613 14.8327 45.1248 15.2135 45.2517 15.5195C45.3819 15.8255 45.5447 16.0664 45.74 16.2422C45.9386 16.4212 46.1599 16.5498 46.4041 16.6279C46.6482 16.7028 46.8891 16.7402 47.1267 16.7402C47.3546 16.7402 47.5792 16.7061 47.8005 16.6377C48.0251 16.5693 48.2319 16.4766 48.4207 16.3594C48.5802 16.265 48.7283 16.1641 48.865 16.0566C49.0017 15.9492 49.114 15.8564 49.2019 15.7783H49.3972V17.5166C49.2149 17.598 49.0408 17.6745 48.8748 17.7461C48.7087 17.8177 48.5346 17.8796 48.3523 17.9316C48.1147 18 47.8917 18.0521 47.6833 18.0879C47.475 18.1237 47.1886 18.1416 46.824 18.1416ZM56.033 18H50.7742V10.7295H56.033V12.1357H52.6394V13.3906H55.7888V14.7969H52.6394V16.5938H56.033V18ZM63.8308 15.7734C63.8308 16.125 63.7592 16.4391 63.616 16.7158C63.476 16.9925 63.2823 17.222 63.0349 17.4043C62.7485 17.6191 62.4327 17.7721 62.0876 17.8633C61.7458 17.9544 61.3113 18 60.7839 18H57.6101V10.7295H60.4324C61.0183 10.7295 61.4464 10.749 61.7166 10.7881C61.99 10.8271 62.2602 10.9134 62.5271 11.0469C62.8038 11.1868 63.0089 11.3757 63.1423 11.6133C63.2791 11.8477 63.3474 12.1162 63.3474 12.4189C63.3474 12.7705 63.2546 13.0814 63.0691 13.3516C62.8835 13.6185 62.6215 13.8268 62.283 13.9766V14.0156C62.7582 14.11 63.1342 14.3053 63.4109 14.6016C63.6908 14.8978 63.8308 15.2884 63.8308 15.7734ZM61.4285 12.7852C61.4285 12.6647 61.3975 12.5443 61.3357 12.4238C61.2771 12.3034 61.1713 12.2139 61.0183 12.1553C60.8816 12.1032 60.7107 12.0755 60.5056 12.0723C60.3038 12.0658 60.019 12.0625 59.6511 12.0625H59.4753V13.6006H59.7683C60.0645 13.6006 60.3168 13.5957 60.5251 13.5859C60.7335 13.5762 60.8979 13.5436 61.0183 13.4883C61.1876 13.4134 61.2983 13.3174 61.3503 13.2002C61.4024 13.0798 61.4285 12.9414 61.4285 12.7852ZM61.8875 15.7441C61.8875 15.513 61.8419 15.3356 61.7507 15.2119C61.6628 15.085 61.5115 14.9906 61.2966 14.9287C61.1501 14.8864 60.9483 14.8636 60.6912 14.8604C60.434 14.8571 60.1654 14.8555 59.8855 14.8555H59.4753V16.667H59.6121C60.1394 16.667 60.517 16.6654 60.7449 16.6621C60.9727 16.6589 61.1827 16.6165 61.3748 16.5352C61.5701 16.4538 61.7035 16.3464 61.7751 16.2129C61.85 16.0762 61.8875 15.9199 61.8875 15.7441ZM72.2976 14.3672C72.2976 15.526 71.9656 16.4473 71.3015 17.1309C70.6375 17.8112 69.7195 18.1514 68.5476 18.1514C67.379 18.1514 66.4626 17.8112 65.7986 17.1309C65.1345 16.4473 64.8025 15.526 64.8025 14.3672C64.8025 13.1986 65.1345 12.2757 65.7986 11.5986C66.4626 10.9183 67.379 10.5781 68.5476 10.5781C69.713 10.5781 70.6293 10.9183 71.2966 11.5986C71.9639 12.2757 72.2976 13.1986 72.2976 14.3672ZM69.8123 16.208C69.9945 15.9867 70.1296 15.7262 70.2175 15.4268C70.3054 15.124 70.3494 14.7692 70.3494 14.3623C70.3494 13.9261 70.2989 13.555 70.198 13.249C70.0971 12.943 69.9653 12.6956 69.8025 12.5068C69.6365 12.3115 69.4444 12.1699 69.2263 12.082C69.0115 11.9941 68.7869 11.9502 68.5525 11.9502C68.3149 11.9502 68.0903 11.9925 67.8787 12.0771C67.6703 12.1618 67.4783 12.3018 67.3025 12.4971C67.1397 12.6794 67.0063 12.9316 66.9021 13.2539C66.8012 13.5729 66.7507 13.944 66.7507 14.3672C66.7507 14.8001 66.7996 15.1696 66.8972 15.4756C66.9981 15.7783 67.13 16.0257 67.2927 16.2178C67.4555 16.4098 67.6459 16.5514 67.864 16.6426C68.0821 16.7337 68.3116 16.7793 68.5525 16.7793C68.7934 16.7793 69.0229 16.7337 69.241 16.6426C69.4591 16.5482 69.6495 16.4033 69.8123 16.208ZM80.8035 14.3672C80.8035 15.526 80.4714 16.4473 79.8074 17.1309C79.1433 17.8112 78.2253 18.1514 77.0535 18.1514C75.8848 18.1514 74.9685 17.8112 74.3044 17.1309C73.6404 16.4473 73.3083 15.526 73.3083 14.3672C73.3083 13.1986 73.6404 12.2757 74.3044 11.5986C74.9685 10.9183 75.8848 10.5781 77.0535 10.5781C78.2188 10.5781 79.1352 10.9183 79.8025 11.5986C80.4698 12.2757 80.8035 13.1986 80.8035 14.3672ZM78.3181 16.208C78.5004 15.9867 78.6355 15.7262 78.7234 15.4268C78.8113 15.124 78.8552 14.7692 78.8552 14.3623C78.8552 13.9261 78.8048 13.555 78.7039 13.249C78.6029 12.943 78.4711 12.6956 78.3083 12.5068C78.1423 12.3115 77.9503 12.1699 77.7322 12.082C77.5173 11.9941 77.2927 11.9502 77.0583 11.9502C76.8207 11.9502 76.5961 11.9925 76.3845 12.0771C76.1762 12.1618 75.9841 12.3018 75.8083 12.4971C75.6456 12.6794 75.5121 12.9316 75.408 13.2539C75.307 13.5729 75.2566 13.944 75.2566 14.3672C75.2566 14.8001 75.3054 15.1696 75.4031 15.4756C75.504 15.7783 75.6358 16.0257 75.7986 16.2178C75.9613 16.4098 76.1518 16.5514 76.3699 16.6426C76.588 16.7337 76.8175 16.7793 77.0583 16.7793C77.2992 16.7793 77.5287 16.7337 77.7468 16.6426C77.9649 16.5482 78.1554 16.4033 78.3181 16.208ZM89.0261 18H86.7263L84.5535 15.0898L84.114 15.6221V18H82.239V10.7295H84.114V14.0205L86.7117 10.7295H88.8845L86.0427 14.0938L89.0261 18Z" fill="white"/>
</svg>
