<svg width="106" height="28" viewBox="0 0 106 28" fill="none" xmlns="http://www.w3.org/2000/svg">
<rect width="105" height="28" transform="translate(0.184082)" fill="#141518"/>
<path d="M18.684 7.3335H13.684C12.5789 7.3335 11.5191 7.77248 10.7377 8.55388C9.95632 9.33529 9.51733 10.3951 9.51733 11.5002L9.51733 16.5002C9.51733 17.6052 9.95632 18.665 10.7377 19.4464C11.5191 20.2278 12.5789 20.6668 13.684 20.6668H18.684C19.7891 20.6668 20.8489 20.2278 21.6303 19.4464C22.4117 18.665 22.8507 17.6052 22.8507 16.5002V11.5002C22.8507 10.3951 22.4117 9.33529 21.6303 8.55388C20.8489 7.77248 19.7891 7.3335 18.684 7.3335V7.3335ZM21.6007 16.5002C21.5998 17.2735 21.2923 18.0148 20.7455 18.5616C20.1987 19.1084 19.4573 19.416 18.684 19.4168H13.684C12.9107 19.416 12.1693 19.1084 11.6225 18.5616C11.0757 18.0148 10.7682 17.2735 10.7673 16.5002V11.5002C10.7682 10.7269 11.0757 9.98548 11.6225 9.43868C12.1693 8.89188 12.9107 8.58432 13.684 8.5835H18.684C19.4573 8.58432 20.1987 8.89188 20.7455 9.43868C21.2923 9.98548 21.5998 10.7269 21.6007 11.5002V16.5002Z" fill="white"/>
<path fill-rule="evenodd" clip-rule="evenodd" d="M20.2105 10.4174C20.2105 10.6628 20.0116 10.8617 19.7662 10.8617C19.5208 10.8617 19.3219 10.6628 19.3219 10.4174C19.3219 10.1721 19.5208 9.97314 19.7662 9.97314C20.0116 9.97314 20.2105 10.1721 20.2105 10.4174ZM14.332 11.2289C14.8802 10.8627 15.5246 10.6672 16.1839 10.6672C17.068 10.6672 17.9158 11.0183 18.5409 11.6435C19.1661 12.2686 19.5173 13.1164 19.5173 14.0005C19.5173 14.6598 19.3218 15.3042 18.9555 15.8524C18.5892 16.4006 18.0686 16.8278 17.4595 17.0801C16.8504 17.3324 16.1802 17.3984 15.5336 17.2698C14.887 17.1412 14.2931 16.8237 13.8269 16.3575C13.3607 15.8913 13.0433 15.2974 12.9146 14.6508C12.786 14.0042 12.852 13.334 13.1043 12.7249C13.3566 12.1158 13.7839 11.5952 14.332 11.2289ZM15.0265 15.7327C15.3691 15.9616 15.7719 16.0838 16.1839 16.0838C16.7362 16.0831 17.2657 15.8633 17.6562 15.4728C18.0468 15.0823 18.2665 14.5528 18.2673 14.0005C18.2673 13.5884 18.1451 13.1857 17.9161 12.8431C17.6872 12.5004 17.3619 12.2334 16.9812 12.0757C16.6005 11.9181 16.1816 11.8768 15.7775 11.9572C15.3734 12.0376 15.0021 12.236 14.7108 12.5273C14.4194 12.8187 14.221 13.1899 14.1406 13.5941C14.0602 13.9982 14.1015 14.4171 14.2592 14.7977C14.4169 15.1784 14.6839 15.5038 15.0265 15.7327Z" fill="white"/>
<path d="M33.1431 18H28.8853V16.7109H30.0767V12.0186H28.8853V10.7295H33.1431V12.0186H31.9517V16.7109H33.1431V18ZM41.2827 18H39.4761L36.3901 13.0098V18H34.6714V10.7295H36.9126L39.564 14.8945V10.7295H41.2827V18ZM48.9585 15.7148C48.9585 16.431 48.6541 17.0137 48.0454 17.4629C47.4399 17.9089 46.6164 18.1318 45.5747 18.1318C44.9725 18.1318 44.4468 18.0798 43.9976 17.9756C43.5516 17.8682 43.1333 17.7331 42.7427 17.5703V15.8271H42.9478C43.3351 16.1364 43.7681 16.374 44.2466 16.54C44.7284 16.7061 45.1906 16.7891 45.6333 16.7891C45.7472 16.7891 45.897 16.7793 46.0825 16.7598C46.2681 16.7402 46.4194 16.7077 46.5366 16.6621C46.6799 16.6035 46.797 16.5303 46.8882 16.4424C46.9826 16.3545 47.0298 16.2243 47.0298 16.0518C47.0298 15.8923 46.9614 15.7555 46.8247 15.6416C46.6912 15.5244 46.4943 15.4349 46.2339 15.373C45.9604 15.3079 45.6707 15.2477 45.3647 15.1924C45.062 15.1338 44.7772 15.0605 44.5103 14.9727C43.8983 14.7741 43.4572 14.5055 43.187 14.167C42.9201 13.8252 42.7866 13.402 42.7866 12.8975C42.7866 12.2204 43.0894 11.6686 43.6948 11.2422C44.3035 10.8125 45.0848 10.5977 46.0386 10.5977C46.5171 10.5977 46.9891 10.6449 47.4546 10.7393C47.9233 10.8304 48.3286 10.946 48.6704 11.0859V12.7607H48.4702C48.1772 12.5264 47.8175 12.3311 47.3911 12.1748C46.9679 12.0153 46.535 11.9355 46.0923 11.9355C45.936 11.9355 45.7798 11.9469 45.6235 11.9697C45.4705 11.9893 45.3224 12.0283 45.1792 12.0869C45.0522 12.1357 44.9432 12.2106 44.8521 12.3115C44.7609 12.4092 44.7153 12.5215 44.7153 12.6484C44.7153 12.8405 44.7886 12.9886 44.9351 13.0928C45.0815 13.1937 45.3582 13.2865 45.7651 13.3711C46.0321 13.4264 46.2876 13.4801 46.5317 13.5322C46.7791 13.5843 47.0444 13.6559 47.3276 13.7471C47.8843 13.9294 48.2944 14.1784 48.5581 14.4941C48.825 14.8066 48.9585 15.2135 48.9585 15.7148ZM55.936 12.1357H53.6655V18H51.7905V12.1357H49.52V10.7295H55.936V12.1357ZM63.7827 18H61.8442L61.3413 16.5303H58.646L58.1431 18H56.2534L58.939 10.7295H61.0972L63.7827 18ZM60.8872 15.1973L59.9937 12.5898L59.1001 15.1973H60.8872ZM71.2583 17.585C70.9328 17.7119 70.5015 17.8389 69.9644 17.9658C69.4272 18.0895 68.8918 18.1514 68.3579 18.1514C67.1209 18.1514 66.1525 17.8161 65.4526 17.1455C64.7528 16.4717 64.4028 15.5423 64.4028 14.3574C64.4028 13.2279 64.756 12.318 65.4624 11.6279C66.1688 10.9346 67.1535 10.5879 68.4165 10.5879C68.895 10.5879 69.3507 10.6318 69.7837 10.7197C70.2166 10.8044 70.6984 10.9753 71.229 11.2324V12.9365H71.019C70.9279 12.8682 70.7944 12.7721 70.6187 12.6484C70.4429 12.5215 70.2736 12.4141 70.1108 12.3262C69.922 12.222 69.7007 12.1325 69.4468 12.0576C69.1961 11.9827 68.9292 11.9453 68.646 11.9453C68.314 11.9453 68.0129 11.9941 67.7427 12.0918C67.4725 12.1895 67.23 12.3392 67.0151 12.541C66.8101 12.7363 66.6473 12.9854 66.5269 13.2881C66.4097 13.5876 66.3511 13.9342 66.3511 14.3281C66.3511 15.1322 66.5643 15.7474 66.9907 16.1738C67.4172 16.6003 68.047 16.8135 68.8804 16.8135C68.952 16.8135 69.0301 16.8118 69.1147 16.8086C69.2026 16.8053 69.2824 16.8005 69.354 16.7939V15.3682H67.9038V13.9961H71.2583V17.585ZM77.02 12.9561C77.02 12.7738 76.9826 12.6175 76.9077 12.4873C76.8328 12.3571 76.7043 12.2546 76.522 12.1797C76.395 12.1276 76.2469 12.0967 76.0776 12.0869C75.9084 12.0739 75.7114 12.0674 75.4868 12.0674H74.8081V14.0254H75.3843C75.6838 14.0254 75.9344 14.0107 76.1362 13.9814C76.3381 13.9521 76.5073 13.8854 76.644 13.7812C76.7743 13.6803 76.8687 13.5697 76.9272 13.4492C76.9891 13.3255 77.02 13.1611 77.02 12.9561ZM79.9448 18H77.6548L75.6724 15.334H74.8081V18H72.9429V10.7295H76.0874C76.5171 10.7295 76.8866 10.7539 77.1958 10.8027C77.505 10.8516 77.7948 10.9574 78.0649 11.1201C78.3384 11.2829 78.5549 11.4945 78.7144 11.7549C78.8771 12.012 78.9585 12.3359 78.9585 12.7266C78.9585 13.2637 78.8332 13.7015 78.5825 14.04C78.3351 14.3786 77.9803 14.6602 77.5181 14.8848L79.9448 18ZM87.4839 18H85.5454L85.0425 16.5303H82.3472L81.8442 18H79.9546L82.6401 10.7295H84.7983L87.4839 18ZM84.5884 15.1973L83.6948 12.5898L82.8013 15.1973H84.5884ZM96.1509 18H94.2856V13.1318L92.938 16.291H91.644L90.2964 13.1318V18H88.5288V10.7295H90.7065L92.3423 14.377L93.9731 10.7295H96.1509V18Z" fill="white"/>
</svg>
