<svg width="95" height="28" viewBox="0 0 95 28" fill="none" xmlns="http://www.w3.org/2000/svg">
<rect width="94" height="28" transform="translate(0.184082)" fill="#0077B5"/>
<path fill-rule="evenodd" clip-rule="evenodd" d="M10.7396 21H21.6285C22.4876 21 23.1841 20.3036 23.1841 19.4444V8.55556C23.1841 7.69645 22.4876 7 21.6285 7H10.7396C9.88053 7 9.18408 7.69645 9.18408 8.55556V19.4444C9.18408 20.3036 9.88053 21 10.7396 21Z" fill="white"/>
<path fill-rule="evenodd" clip-rule="evenodd" d="M21.2395 19.0554H19.162V15.517C19.162 14.5468 18.7934 14.0047 18.0255 14.0047C17.1901 14.0047 16.7537 14.5689 16.7537 15.517V19.0554H14.7516V12.3147H16.7537V13.2227C16.7537 13.2227 17.3557 12.1088 18.7861 12.1088C20.2159 12.1088 21.2395 12.9819 21.2395 14.7876V19.0554ZM12.363 11.4321C11.681 11.4321 11.1284 10.8751 11.1284 10.1882C11.1284 9.50129 11.681 8.94434 12.363 8.94434C13.045 8.94434 13.5973 9.50129 13.5973 10.1882C13.5973 10.8751 13.045 11.4321 12.363 11.4321ZM11.3292 19.0554H13.4169V12.3147H11.3292V19.0554Z" fill="#0077B5"/>
<path d="M34.8159 18H29.5718V10.7295H31.4468V16.5938H34.8159V18ZM39.8794 18H35.6216V16.7109H36.813V12.0186H35.6216V10.7295H39.8794V12.0186H38.688V16.7109H39.8794V18ZM48.019 18H46.2124L43.1265 13.0098V18H41.4077V10.7295H43.6489L46.3003 14.8945V10.7295H48.019V18ZM56.6616 18H54.3618L52.189 15.0898L51.7495 15.6221V18H49.8745V10.7295H51.7495V14.0205L54.3472 10.7295H56.52L53.6782 14.0938L56.6616 18ZM62.8481 18H57.5894V10.7295H62.8481V12.1357H59.4546V13.3906H62.604V14.7969H59.4546V16.5938H62.8481V18ZM71.2954 14.3721C71.2954 15.0492 71.1408 15.6562 70.8315 16.1934C70.5223 16.7272 70.1317 17.1374 69.6597 17.4238C69.3049 17.6387 68.9159 17.7884 68.4927 17.873C68.0695 17.9577 67.5682 18 66.9888 18H64.4253V10.7295H67.062C67.6545 10.7295 68.1655 10.7799 68.5952 10.8809C69.0249 10.9785 69.3862 11.1185 69.6792 11.3008C70.1805 11.6068 70.5744 12.0202 70.8608 12.541C71.1506 13.0586 71.2954 13.6689 71.2954 14.3721ZM69.3569 14.3574C69.3569 13.8789 69.269 13.4704 69.0933 13.1318C68.9207 12.79 68.6457 12.5231 68.2681 12.3311C68.076 12.2367 67.8791 12.1732 67.6772 12.1406C67.4787 12.1048 67.1776 12.0869 66.7739 12.0869H66.3003V16.6377H66.7739C67.2199 16.6377 67.547 16.6182 67.7554 16.5791C67.9637 16.5368 68.1672 16.4619 68.3657 16.3545C68.7075 16.1592 68.9582 15.8988 69.1177 15.5732C69.2772 15.2445 69.3569 14.8392 69.3569 14.3574ZM76.6567 18H72.3989V16.7109H73.5903V12.0186H72.3989V10.7295H76.6567V12.0186H75.4653V16.7109H76.6567V18ZM84.7964 18H82.9897L79.9038 13.0098V18H78.1851V10.7295H80.4263L83.0776 14.8945V10.7295H84.7964V18Z" fill="white"/>
</svg>
