<svg width="94" height="28" viewBox="0 0 94 28" fill="none" xmlns="http://www.w3.org/2000/svg">
    <rect width="93.1842" height="28" fill="#4992FF" />
    <path
        d="M10.8607 13.6343L15.015 5.5H12.9971C12.3664 5.5 11.7909 5.85331 11.4995 6.41492C8.57123 12.1459 9.7237 11.312 10.8607 13.6343Z"
        fill="#EBEBEB" />
    <path
        d="M11.4972 6.4209C9.84136 9.66029 9.72214 11.3046 10.8591 13.6276L12.9322 17.8718H10.4853C10.1181 17.8718 9.7847 17.6635 9.62574 17.3381L8.16199 14.349C7.94048 13.8985 7.9471 13.3708 8.17597 12.9203L11.4972 6.4209Z"
        fill="white" />
    <path
        d="M16.3234 14.3657L12.1691 22.5H14.187C14.8177 22.5 15.3932 22.1467 15.6846 21.5851C18.6129 15.8541 17.4604 16.688 16.3234 14.3657Z"
        fill="#EBEBEB" />
    <path
        d="M15.6869 21.5796C17.3427 18.3402 17.4619 16.6958 16.3249 14.3728L14.2519 10.1287H16.6988C17.066 10.1287 17.3994 10.337 17.5583 10.6624L19.0221 13.6515C19.2436 14.102 19.237 14.6297 19.0081 15.0802L15.6869 21.5796Z"
        fill="white" />
    <path
        d="M30.3806 15.7148C30.3806 16.431 30.0763 17.0137 29.4675 17.4629C28.8621 17.9089 28.0385 18.1318 26.9968 18.1318C26.3946 18.1318 25.8689 18.0798 25.4197 17.9756C24.9737 17.8682 24.5554 17.7331 24.1648 17.5703V15.8271H24.3699C24.7572 16.1364 25.1902 16.374 25.6687 16.54C26.1505 16.7061 26.6127 16.7891 27.0554 16.7891C27.1694 16.7891 27.3191 16.7793 27.5046 16.7598C27.6902 16.7402 27.8416 16.7077 27.9587 16.6621C28.102 16.6035 28.2192 16.5303 28.3103 16.4424C28.4047 16.3545 28.4519 16.2243 28.4519 16.0518C28.4519 15.8923 28.3835 15.7555 28.2468 15.6416C28.1134 15.5244 27.9164 15.4349 27.656 15.373C27.3826 15.3079 27.0929 15.2477 26.7869 15.1924C26.4841 15.1338 26.1993 15.0605 25.9324 14.9727C25.3204 14.7741 24.8793 14.5055 24.6091 14.167C24.3422 13.8252 24.2087 13.402 24.2087 12.8975C24.2087 12.2204 24.5115 11.6686 25.1169 11.2422C25.7257 10.8125 26.5069 10.5977 27.4607 10.5977C27.9392 10.5977 28.4112 10.6449 28.8767 10.7393C29.3455 10.8304 29.7507 10.946 30.0925 11.0859V12.7607H29.8923C29.5994 12.5264 29.2397 12.3311 28.8132 12.1748C28.3901 12.0153 27.9571 11.9355 27.5144 11.9355C27.3582 11.9355 27.2019 11.9469 27.0457 11.9697C26.8927 11.9893 26.7445 12.0283 26.6013 12.0869C26.4744 12.1357 26.3653 12.2106 26.2742 12.3115C26.183 12.4092 26.1375 12.5215 26.1375 12.6484C26.1375 12.8405 26.2107 12.9886 26.3572 13.0928C26.5037 13.1937 26.7804 13.2865 27.1873 13.3711C27.4542 13.4264 27.7097 13.4801 27.9539 13.5322C28.2013 13.5843 28.4666 13.6559 28.7498 13.7471C29.3064 13.9294 29.7166 14.1784 29.9802 14.4941C30.2472 14.8066 30.3806 15.2135 30.3806 15.7148ZM38.74 14.3672C38.74 15.526 38.408 16.4473 37.7439 17.1309C37.0798 17.8112 36.1619 18.1514 34.99 18.1514C33.8214 18.1514 32.905 17.8112 32.241 17.1309C31.5769 16.4473 31.2449 15.526 31.2449 14.3672C31.2449 13.1986 31.5769 12.2757 32.241 11.5986C32.905 10.9183 33.8214 10.5781 34.99 10.5781C36.1554 10.5781 37.0717 10.9183 37.739 11.5986C38.4063 12.2757 38.74 13.1986 38.74 14.3672ZM36.2546 16.208C36.4369 15.9867 36.572 15.7262 36.6599 15.4268C36.7478 15.124 36.7917 14.7692 36.7917 14.3623C36.7917 13.9261 36.7413 13.555 36.6404 13.249C36.5395 12.943 36.4076 12.6956 36.2449 12.5068C36.0789 12.3115 35.8868 12.1699 35.6687 12.082C35.4539 11.9941 35.2292 11.9502 34.9949 11.9502C34.7572 11.9502 34.5326 11.9925 34.321 12.0771C34.1127 12.1618 33.9207 12.3018 33.7449 12.4971C33.5821 12.6794 33.4486 12.9316 33.3445 13.2539C33.2436 13.5729 33.1931 13.944 33.1931 14.3672C33.1931 14.8001 33.2419 15.1696 33.3396 15.4756C33.4405 15.7783 33.5723 16.0257 33.7351 16.2178C33.8979 16.4098 34.0883 16.5514 34.3064 16.6426C34.5245 16.7337 34.754 16.7793 34.9949 16.7793C35.2358 16.7793 35.4653 16.7337 35.6833 16.6426C35.9014 16.5482 36.0919 16.4033 36.2546 16.208ZM45.4197 18H40.1755V10.7295H42.0505V16.5938H45.4197V18ZM52.9832 17.585C52.6576 17.7119 52.2263 17.8389 51.6892 17.9658C51.1521 18.0895 50.6166 18.1514 50.0828 18.1514C48.8458 18.1514 47.8774 17.8161 47.1775 17.1455C46.4776 16.4717 46.1277 15.5423 46.1277 14.3574C46.1277 13.2279 46.4809 12.318 47.1873 11.6279C47.8936 10.9346 48.8783 10.5879 50.1414 10.5879C50.6199 10.5879 51.0756 10.6318 51.5085 10.7197C51.9415 10.8044 52.4233 10.9753 52.9539 11.2324V12.9365H52.7439C52.6528 12.8682 52.5193 12.7721 52.3435 12.6484C52.1677 12.5215 51.9985 12.4141 51.8357 12.3262C51.6469 12.222 51.4255 12.1325 51.1716 12.0576C50.921 11.9827 50.6541 11.9453 50.3708 11.9453C50.0388 11.9453 49.7377 11.9941 49.4675 12.0918C49.1973 12.1895 48.9548 12.3392 48.74 12.541C48.5349 12.7363 48.3722 12.9854 48.2517 13.2881C48.1345 13.5876 48.0759 13.9342 48.0759 14.3281C48.0759 15.1322 48.2891 15.7474 48.7156 16.1738C49.142 16.6003 49.7719 16.8135 50.6052 16.8135C50.6768 16.8135 50.755 16.8118 50.8396 16.8086C50.9275 16.8053 51.0072 16.8005 51.0789 16.7939V15.3682H49.6287V13.9961H52.9832V17.585ZM61.0349 15.3682C61.0349 16.2666 60.7615 16.9551 60.2146 17.4336C59.6677 17.9121 58.8621 18.1514 57.7976 18.1514C56.7332 18.1514 55.9275 17.9121 55.3806 17.4336C54.837 16.9551 54.5652 16.2682 54.5652 15.373V10.7295H56.45V15.2656C56.45 15.7702 56.5557 16.1462 56.7673 16.3936C56.9789 16.641 57.3223 16.7646 57.7976 16.7646C58.2664 16.7646 58.6082 16.6458 58.823 16.4082C59.0411 16.1706 59.1501 15.7897 59.1501 15.2656V10.7295H61.0349V15.3682ZM66.8699 12.9561C66.8699 12.7738 66.8324 12.6175 66.7576 12.4873C66.6827 12.3571 66.5541 12.2546 66.3718 12.1797C66.2449 12.1276 66.0968 12.0967 65.9275 12.0869C65.7582 12.0739 65.5613 12.0674 65.3367 12.0674H64.658V14.0254H65.2341C65.5336 14.0254 65.7843 14.0107 65.9861 13.9814C66.1879 13.9521 66.3572 13.8854 66.4939 13.7812C66.6241 13.6803 66.7185 13.5697 66.7771 13.4492C66.8389 13.3255 66.8699 13.1611 66.8699 12.9561ZM69.7947 18H67.5046L65.5222 15.334H64.658V18H62.7927V10.7295H65.9373C66.3669 10.7295 66.7364 10.7539 67.0457 10.8027C67.3549 10.8516 67.6446 10.9574 67.9148 11.1201C68.1882 11.2829 68.4047 11.4945 68.5642 11.7549C68.727 12.012 68.8083 12.3359 68.8083 12.7266C68.8083 13.2637 68.683 13.7015 68.4324 14.04C68.185 14.3786 67.8302 14.6602 67.3679 14.8848L69.7947 18ZM76.9822 15.3682C76.9822 16.2666 76.7087 16.9551 76.1619 17.4336C75.615 17.9121 74.8093 18.1514 73.7449 18.1514C72.6804 18.1514 71.8748 17.9121 71.3279 17.4336C70.7843 16.9551 70.5125 16.2682 70.5125 15.373V10.7295H72.3972V15.2656C72.3972 15.7702 72.503 16.1462 72.7146 16.3936C72.9262 16.641 73.2696 16.7646 73.7449 16.7646C74.2136 16.7646 74.5554 16.6458 74.7703 16.4082C74.9884 16.1706 75.0974 15.7897 75.0974 15.2656V10.7295H76.9822V15.3682ZM84.3601 18H78.2517V16.6377L81.8748 12.1357H78.4275V10.7295H84.1648V12.1162L80.5466 16.5938H84.3601V18Z"
        fill="white" />
</svg>