<svg width="89" height="28" viewBox="0 0 89 28" fill="none" xmlns="http://www.w3.org/2000/svg">
<rect width="88" height="28" transform="translate(0.184082)" fill="#00ACEE"/>
<path d="M22.8507 9.69702C22.3491 9.91579 21.8187 10.0611 21.2757 10.1285C21.8479 9.78922 22.2758 9.25182 22.4783 8.61813C21.9424 8.93582 21.3562 9.15961 20.7449 9.27984C20.3699 8.88019 19.8835 8.60245 19.3487 8.48264C18.8139 8.36284 18.2554 8.40649 17.7458 8.60795C17.2361 8.80941 16.7987 9.15937 16.4904 9.61244C16.182 10.0655 16.017 10.6008 16.0166 11.1488C16.0144 11.3582 16.0356 11.5673 16.0798 11.772C13.8074 11.661 11.7965 10.572 10.4457 8.91292C10.094 9.51423 9.9851 10.2271 10.1412 10.906C10.2973 11.5849 10.7066 12.1786 11.2856 12.566C10.8529 12.5544 10.4294 12.439 10.0507 12.2295V12.2595C10.0514 12.8907 10.2696 13.5023 10.6685 13.9915C11.0674 14.4806 11.6226 14.8174 12.2408 14.9451C12.0069 15.0068 11.7659 15.0371 11.5241 15.0352C11.3504 15.0383 11.1768 15.0227 11.0064 14.9886C11.3606 16.0711 12.3658 16.8669 13.5606 16.8927C12.593 17.6493 11.3998 18.0598 10.1715 18.0586C9.95287 18.06 9.73437 18.0475 9.51733 18.0211C10.7671 18.8263 12.2233 19.2523 13.71 19.2476C18.7403 19.2476 21.4903 15.081 21.4903 11.4694C21.4903 11.3486 21.4861 11.2319 21.4801 11.116C22.0195 10.7303 22.4839 10.2494 22.8507 9.69702V9.69702Z" fill="white"/>
<path d="M34.8726 12.1357H32.6021V18H30.7271V12.1357H28.4565V10.7295H34.8726V12.1357ZM46.0347 10.7295L44.0767 18H42.0015L40.6978 13.2637L39.4282 18H37.353L35.395 10.7295H37.353L38.4712 15.7344L39.8091 10.7295H41.6792L42.9536 15.7344L44.1255 10.7295H46.0347ZM51.2202 18H46.9624V16.7109H48.1538V12.0186H46.9624V10.7295H51.2202V12.0186H50.0288V16.7109H51.2202V18ZM58.437 12.1357H56.1665V18H54.2915V12.1357H52.021V10.7295H58.437V12.1357ZM65.2534 12.1357H62.9829V18H61.1079V12.1357H58.8374V10.7295H65.2534V12.1357ZM71.6401 18H66.3813V10.7295H71.6401V12.1357H68.2466V13.3906H71.396V14.7969H68.2466V16.5938H71.6401V18ZM77.2944 12.9561C77.2944 12.7738 77.257 12.6175 77.1821 12.4873C77.1073 12.3571 76.9787 12.2546 76.7964 12.1797C76.6694 12.1276 76.5213 12.0967 76.3521 12.0869C76.1828 12.0739 75.9858 12.0674 75.7612 12.0674H75.0825V14.0254H75.6587C75.9582 14.0254 76.2088 14.0107 76.4106 13.9814C76.6125 13.9521 76.7817 13.8854 76.9185 13.7812C77.0487 13.6803 77.1431 13.5697 77.2017 13.4492C77.2635 13.3255 77.2944 13.1611 77.2944 12.9561ZM80.2192 18H77.9292L75.9468 15.334H75.0825V18H73.2173V10.7295H76.3618C76.7915 10.7295 77.161 10.7539 77.4702 10.8027C77.7795 10.8516 78.0692 10.9574 78.3394 11.1201C78.6128 11.2829 78.8293 11.4945 78.9888 11.7549C79.1515 12.012 79.2329 12.3359 79.2329 12.7266C79.2329 13.2637 79.1076 13.7015 78.8569 14.04C78.6095 14.3786 78.2547 14.6602 77.7925 14.8848L80.2192 18Z" fill="white"/>
</svg>
